<?xml version="1.0" encoding="utf-8" ?><svg xmlns="http://www.w3.org/2000/svg" xmlns:xlink="http://www.w3.org/1999/xlink" width="512" height="512" viewBox="0 0 512 512"><path fill="#19191A" transform="scale(0.5 0.5)" d="M82.484 400.268L130.799 400.246C151.177 400.254 173.458 399.516 188.939 415.372C209.6 436.538 206.142 463.914 185.949 483.25C210.248 493.778 210.59 528.27 199.637 548.772C178.248 583.156 119.329 571.98 82.484 573.354L82.484 400.268ZM118.977 538.926C132.137 538.988 154.236 541.598 164.225 533.098C174.856 521.672 170.24 503.82 154.297 501.324C143.309 499.604 130.24 500.402 118.977 500.456L118.977 538.926ZM118.977 434.038C118.836 441.682 118.458 460.724 118.977 467.834C127.719 467.97 150.361 468.726 157.517 466.028C171.503 457.364 167.851 437.218 151.781 434.822C142.91 433.498 132.741 433.966 123.7 434.038L118.977 434.038Z"/><path fill="#19191A" transform="scale(0.5 0.5)" d="M524.614 440.298C538.172 440.126 551.858 439.58 564.052 446.502C598.864 466.268 591.984 502.728 591.898 537.284C591.862 551.868 592.434 566.74 591.032 581.252C583.97 643.01 490.508 644.994 477.026 594.618C476.358 591.964 475.766 588.264 475.242 585.502C488.064 585.522 501.056 585.298 513.85 585.502C519.46 600.076 535 605.808 547.172 595.954C555.608 589.124 554.558 574.362 555.476 564.166C539.216 575.784 516.316 577.946 498.922 566.826C478.734 552.618 478.32 532.112 478.236 510.676C478.076 470.674 481.264 448.568 524.614 440.298ZM534.112 544.034C547.818 545.196 554.426 536.444 553.452 522.84C552.052 503.322 562.28 469.09 532.122 469.198C510.34 471.424 512.408 488.856 512.222 505.962C512.046 522.212 510.87 546.556 534.112 544.034Z"/><path fill="#19191A" transform="scale(0.5 0.5)" d="M426.236 400.268C435.05 400.286 454.17 399.59 462.098 400.268L462.088 477.176C462.094 493.866 462.678 510.9 461.812 527.53C459.576 570.45 415.398 582.46 380.338 571.374C347.864 558.574 347.974 535.54 348.484 505.04C348.338 487.768 347.196 469.302 359.5 455.362C374.6 438.254 408.886 435.224 426.236 450.094L426.236 400.268ZM409.732 544.034C431.156 539.682 425.9 515.166 426.086 498.716C426.396 480.116 418.956 472.614 400.258 472.528C377.566 477.01 384.544 495.424 383.408 511.918C382.098 530.952 385.602 548.516 409.732 544.034Z"/><path fill="#01BA35" transform="scale(0.5 0.5)" d="M652.404 316.576C667.402 315.816 670.952 325.526 671 338.58L671.87 338.576C741.5 338.314 749.226 356.916 749.13 422.51L708.164 422.51C707.476 383.71 714.022 379.6 671 379.776C671.308 412.264 639.98 408.218 638.494 386.584L638.494 379.776C600.17 379.694 596.978 377.554 597.018 417.08L597.068 454.18C584.528 437.286 574.698 431.706 555.476 424.034L555.392 399.482C555.308 344.568 593.838 338.458 638.494 338.58C638.454 327.182 640.618 320.092 652.404 316.576Z"/><path fill="#01BA35" transform="scale(0.5 0.5)" d="M796.518 443.996C808.39 443.864 820.446 443.91 832.322 443.996C831.742 446.15 831.26 447.98 830.508 450.094C820.416 470.034 810.716 517.542 802.496 541.488C791.628 573.142 785.364 625.042 745.14 631.82C721.8 635.754 705.516 627.712 687.178 614.912C690.822 608.358 701.592 595.636 707.252 590.782C725.592 607.298 745.722 608.188 754.474 581.658C758.5 569.458 754.556 564.608 750.388 553.004L738.376 519.84C728.996 494.29 720.978 469.182 710.466 443.996C721.936 444.366 735.484 444.008 747.116 443.996C749.038 461.6 764.78 510.302 770.736 527.112C780.172 500.104 786.006 471.088 796.518 443.996Z"/><path fill="#19191A" transform="scale(0.5 0.5)" d="M226.516 443.996L257.548 443.996L257.522 497.5C257.522 506.45 255.846 531.22 262.122 537.492C270.68 546.044 293.374 545.18 295.242 528.874C296.542 517.53 296.308 507.71 296.308 496.068L296.29 443.996C308.202 444.024 320.294 443.762 332.176 443.996L332.176 483.25L332.246 507.74C332.47 547.278 322.78 573.112 279.016 575.214C222.56 577.924 220.902 537.464 220.924 496.732L220.952 443.996L226.516 443.996Z"/><path fill="#19191A" transform="scale(0.5 0.5)" d="M832.322 443.996C843.07 442.388 855.046 443.996 866.008 443.996C873.594 457.03 877.922 471.392 884.742 484.66C889.608 474.19 899.36 452.8 905.872 443.996C909.95 443.432 937.422 443.57 941.474 443.996C931.026 462.992 919.098 486.86 909.956 506.664C919.388 525.538 936.958 554.67 943.488 573.354L905.872 573.354C899.744 559.99 892.172 542.384 884.742 529.888L875.184 550.702C871.48 558.66 867.81 564.76 866.008 573.354L826.962 573.354C833.762 552.348 850.748 526.072 855.956 506.664C852.114 491.95 837.714 462.916 830.508 450.094C831.26 447.98 831.742 446.15 832.322 443.996Z"/><path fill="#01BA35" transform="scale(0.5 0.5)" d="M610.584 443.996L707.252 443.996C707.422 471.472 708.972 464.134 693.512 484.944C680.964 501.83 659.79 526.268 649.684 543.45L649.344 544.034L715.388 544.034L715.388 571.374L715.162 573.258C713.82 574.182 702.536 573.384 699.766 573.378L610.584 573.354L610.584 544.034C624.444 520.58 649.672 496.784 665.092 472.528C647.02 472.002 628.59 473.738 610.584 472.528C610.422 463.198 610.538 453.338 610.584 443.996Z"/><path fill="#01BA35" transform="scale(0.5 0.5)" d="M594.834 614.912C596.458 617.138 593.468 624.722 600.85 631.822C611.154 641.732 626.878 639.586 640.502 639.518C640.262 623.178 649.894 605.98 665.378 619.148C670.966 623.902 670.624 632.818 671 639.518C694.228 640.694 687.038 638.362 708.854 645.122C722.238 649.27 733.37 648.976 747.116 648.542C737.768 665.174 726.038 673.95 708.164 679.322C695.532 683.102 683.938 682.592 671 682.572C671.102 700.054 657.83 714.47 645.03 701.392C639.504 695.746 640.412 689.688 640.502 682.572C607.58 683.542 574.986 675.988 559.168 643.064C574.852 635.122 585.23 630.264 594.834 614.912Z"/></svg>